<?xml version="1.0" standalone="no"?>
<!DOCTYPE svg PUBLIC "-//W3C//DTD SVG 20010904//EN"
 "http://www.w3.org/TR/2001/REC-SVG-20010904/DTD/svg10.dtd">
<svg version="1.0" xmlns="http://www.w3.org/2000/svg"
 width="662.000000pt" height="662.000000pt" viewBox="0 0 662.000000 662.000000"
 preserveAspectRatio="xMidYMid meet">
<metadata>
Created by potrace 1.11, written by Peter Selinger 2001-2013
</metadata>
<g transform="translate(0.000000,662.000000) scale(0.100000,-0.100000)"
fill="#000000" stroke="none">
<path d="M2579 6616 c-2 -2 -35 -6 -74 -9 -38 -4 -95 -11 -125 -16 -30 -6 -69
-13 -86 -16 -55 -9 -258 -64 -314 -85 -30 -12 -75 -28 -100 -37 -48 -17 -242
-111 -300 -146 -381 -229 -664 -520 -854 -880 -104 -197 -165 -387 -211 -657
-10 -61 -13 -352 -4 -425 15 -120 44 -264 68 -340 12 -37 13 -34 16 40 5 110
16 226 25 278 5 29 12 67 15 84 26 157 108 399 191 563 162 323 452 645 756
842 252 163 553 279 840 322 119 18 160 21 328 21 211 0 289 -6 433 -36 297
-60 528 -156 782 -324 215 -143 369 -291 553 -530 16 -20 112 -166 112 -169 0
-2 18 -36 41 -77 108 -196 204 -485 235 -704 20 -150 26 -411 12 -553 -21
-205 -100 -488 -191 -682 -185 -395 -496 -736 -869 -952 -176 -102 -201 -120
-239 -177 -126 -188 -49 -439 161 -526 86 -36 176 -39 240 -7 25 12 89 62 144
111 103 94 140 113 182 91 54 -29 73 -147 51 -317 -8 -60 -68 -301 -102 -413
-46 -148 -55 -354 -22 -475 54 -196 206 -335 417 -381 118 -25 146 -28 300
-29 177 0 253 8 390 41 448 110 748 369 878 759 80 241 65 414 -44 514 -66 61
-138 85 -249 84 -103 0 -170 -20 -325 -95 -472 -229 -929 -344 -981 -246 -13
23 -15 109 -4 178 22 149 112 485 220 820 19 58 66 206 105 330 40 124 82 257
95 295 13 39 56 171 95 295 39 124 92 286 116 360 78 242 89 316 89 625 0 241
-10 350 -50 555 -112 579 -472 1164 -939 1528 -100 78 -261 192 -271 192 -3 0
-24 12 -48 27 -147 93 -435 212 -647 268 -15 4 -127 29 -140 31 -8 2 -31 6
-50 9 -153 29 -244 38 -441 41 -114 1 -209 1 -210 0z"/>
<path d="M1616 5618 c10 -12 28 -32 39 -43 11 -12 60 -65 110 -118 l90 -97
292 0 291 0 55 58 c69 72 133 140 175 186 l32 36 -551 0 -552 0 19 -22z"/>
<path d="M1569 5609 c-4 -16 -3 -1432 1 -1434 3 -1 56 73 119 165 l113 167 1
380 0 379 -39 60 c-21 32 -42 64 -47 69 -4 6 -24 35 -44 65 -68 102 -103 152
-104 149z"/>
<path d="M2603 5434 l-113 -165 0 -385 0 -385 112 -164 c62 -90 115 -162 118
-160 6 4 5 1413 -1 1419 -2 2 -55 -70 -116 -160z"/>
<path d="M3980 5310 c-74 -15 -157 -30 -185 -34 -50 -7 -50 -8 -456 -412
l-405 -405 -23 -127 c-13 -70 -25 -136 -27 -147 -3 -11 -7 -38 -10 -60 -4 -22
-11 -51 -15 -64 -9 -23 -8 -24 28 -18 59 9 387 68 390 70 50 44 804 806 808
816 4 15 75 397 75 406 0 9 -46 3 -180 -25z"/>
<path d="M352 4603 c1 -5 -2 -28 -6 -53 -25 -145 -30 -216 -30 -415 -1 -226 4
-291 39 -480 73 -395 252 -781 512 -1105 86 -108 265 -288 363 -365 41 -32 77
-62 80 -65 15 -19 250 -166 340 -214 227 -119 505 -215 725 -250 194 -30 290
-39 445 -38 193 1 350 18 540 58 l76 16 0 57 c0 77 8 113 37 166 14 25 25 45
23 45 -1 0 -44 -9 -96 -21 -129 -28 -125 -27 -189 -35 -31 -3 -58 -8 -61 -9
-18 -11 -196 -20 -375 -20 -245 0 -319 6 -497 44 -238 50 -506 164 -724 310
-65 44 -128 88 -139 98 -11 10 -40 34 -65 55 -88 72 -237 224 -320 327 -288
357 -499 813 -595 1286 -9 44 -18 88 -20 99 -3 10 -7 44 -11 75 -3 31 -8 58
-9 61 -2 3 -7 48 -11 100 -4 52 -8 106 -9 120 -2 14 -3 55 -4 93 -1 37 -5 67
-11 67 -5 0 -9 -3 -8 -7z"/>
<path d="M1860 4432 c-8 -2 -34 -27 -58 -55 -23 -29 -61 -73 -85 -98 -53 -59
-99 -110 -114 -130 -12 -14 39 -16 542 -16 l555 0 -18 21 c-51 60 -165 189
-209 236 l-42 45 -278 0 c-153 0 -285 -1 -293 -3z"/>
<path d="M2562 3941 l-183 -36 -403 -404 c-392 -390 -404 -404 -412 -449 -4
-26 -8 -51 -9 -57 -5 -22 -34 -182 -38 -210 -3 -16 -8 -47 -12 -69 -8 -38 -8
-38 21 -32 16 3 45 8 64 11 19 3 42 8 50 10 8 2 33 7 55 10 22 2 51 7 65 10
14 3 35 7 47 9 11 3 41 7 66 11 42 7 61 24 447 410 222 222 405 410 406 417 2
7 8 40 13 73 6 33 13 71 16 85 7 32 45 242 45 247 0 8 -71 -2 -238 -36z"/>
<path d="M2945 3930 c-2 -3 29 -39 68 -81 40 -41 96 -101 125 -132 30 -31 61
-57 70 -58 116 -6 575 0 581 9 3 5 56 63 117 128 61 66 111 124 110 129 -1 11
-1064 16 -1071 5z"/>
<path d="M2905 3196 c0 -393 2 -716 5 -719 3 -3 56 71 118 163 l112 169 0 378
0 379 -111 164 c-61 91 -114 168 -118 172 -4 4 -7 -314 -6 -706z"/>
<path d="M3940 3733 l-114 -168 -1 -381 0 -382 117 -173 118 -172 0 721 c0
397 -1 722 -3 722 -2 0 -55 -75 -117 -167z"/>
<path d="M3202 2730 c-10 -3 -54 -45 -98 -95 -43 -49 -87 -99 -97 -110 -10
-11 -32 -37 -49 -57 l-30 -38 552 0 c468 0 550 2 543 14 -7 13 -31 40 -190
220 l-61 70 -276 0 c-151 1 -283 -1 -294 -4z"/>
</g>
</svg>
